<svg xmlns="http://www.w3.org/2000/svg" width="512" height="512" viewBox="0 0 512 512" role="img" aria-labelledby="title"><title id="title">Egg Hop oyun ikonu</title><defs><radialGradient id="light" cx=".35" cy=".15" r=".9"><stop stop-color="#fff0b8" stop-opacity=".24"/><stop offset="1" stop-color="#fff0b8" stop-opacity="0"/></radialGradient><filter id="shadow" x="-30%" y="-30%" width="160%" height="180%"><feDropShadow dx="0" dy="12" stdDeviation="10" flood-opacity=".2"/></filter></defs><rect x="0" y="0" width="512" height="512" rx="0" fill="#91bcc4" /><rect x="0" y="0" width="512" height="512" rx="0" fill="url(#light)" /><circle cx="414" cy="66" r="92" fill="none" stroke="#fff0b8" stroke-opacity=".12" stroke-width="1"/><circle cx="82" cy="334" r="136" fill="none" stroke="#fff0b8" stroke-opacity=".12" stroke-width="1"/><g filter="url(#shadow)"><circle cx="256" cy="200" r="155" fill="#fff4d855" /><path d="M183 227 C167 190 198 85 244 80 C286 77 321 179 311 221 C303 271 202 276 183 227Z" fill="#fff4d9" stroke="#d7b988" stroke-width="5"/><circle cx="228" cy="202" r="7" fill="#584938" /><circle cx="277" cy="202" r="7" fill="#584938" /><path d="M 243 222 Q 253 232 264 221" fill="none" stroke="#584938" stroke-width="4" stroke-linecap="round" stroke-linejoin="round" /><path d="M 204 280 Q 158 253 167 218" fill="none" stroke="#fff6d9" stroke-width="5" stroke-linecap="round" stroke-linejoin="round" stroke-dasharray="7 15"/><path d="M128 314 Q256 283 384 314 L353 369 Q256 398 160 369Z" fill="#b47e4e" stroke="#795b40" stroke-width="5"/><path d="M 142 326 Q256 350 371 326 M 155 349 Q256 374 357 349" fill="none" stroke="#e0b578" stroke-width="7" stroke-linecap="round" stroke-linejoin="round" /><path d="M 188 320 L 196 377 M 253 314 V 386 M 319 320 L 311 377" fill="none" stroke="#e0b578" stroke-width="6" stroke-linecap="round" stroke-linejoin="round" /></g><text x="256" y="444" text-anchor="middle" fill="#244451" font-family="Arial,Helvetica,sans-serif" font-size="44" font-weight="700">Egg Hop</text><path d="M 225 472 H 287" fill="none" stroke="#fff0b8" stroke-width="4" stroke-linecap="round" stroke-linejoin="round" /></svg>