<svg xmlns="http://www.w3.org/2000/svg" width="512" height="512" viewBox="0 0 512 512" role="img" aria-labelledby="title"><title id="title">Wellbloom oyun ikonu</title><defs><radialGradient id="light" cx=".35" cy=".15" r=".9"><stop stop-color="#5fc8f0" stop-opacity=".24"/><stop offset="1" stop-color="#5fc8f0" stop-opacity="0"/></radialGradient><filter id="shadow" x="-30%" y="-30%" width="160%" height="180%"><feDropShadow dx="0" dy="12" stdDeviation="10" flood-opacity=".2"/></filter></defs><rect x="0" y="0" width="512" height="512" rx="0" fill="#2a2440" /><rect x="0" y="0" width="512" height="512" rx="0" fill="url(#light)" /><circle cx="414" cy="66" r="92" fill="none" stroke="#5fc8f0" stroke-opacity=".12" stroke-width="1"/><circle cx="82" cy="334" r="136" fill="none" stroke="#5fc8f0" stroke-opacity=".12" stroke-width="1"/><g filter="url(#shadow)"><rect x="84" y="250" width="344" height="120" rx="14" fill="#6d4a3a"/><rect x="84" y="250" width="344" height="16" rx="8" fill="#8a5a3b"/><rect x="84" y="286" width="220" height="30" fill="#bfe6fb"/><rect x="84" y="296" width="220" height="10" fill="#5fc8f0"/><rect x="313" y="92" width="17" height="17" fill="#f27aa8"/><rect x="330" y="92" width="17" height="17" fill="#f27aa8"/><rect x="347" y="92" width="17" height="17" fill="#f27aa8"/><rect x="364" y="92" width="17" height="17" fill="#f27aa8"/><rect x="296" y="109" width="17" height="17" fill="#f27aa8"/><rect x="313" y="109" width="17" height="17" fill="#ffd1e3"/><rect x="330" y="109" width="17" height="17" fill="#f27aa8"/><rect x="347" y="109" width="17" height="17" fill="#f27aa8"/><rect x="364" y="109" width="17" height="17" fill="#ffd1e3"/><rect x="381" y="109" width="17" height="17" fill="#f27aa8"/><rect x="296" y="126" width="17" height="17" fill="#f27aa8"/><rect x="313" y="126" width="17" height="17" fill="#f27aa8"/><rect x="330" y="126" width="17" height="17" fill="#f27aa8"/><rect x="347" y="126" width="17" height="17" fill="#f27aa8"/><rect x="364" y="126" width="17" height="17" fill="#f27aa8"/><rect x="381" y="126" width="17" height="17" fill="#f27aa8"/><rect x="313" y="143" width="17" height="17" fill="#f27aa8"/><rect x="330" y="143" width="17" height="17" fill="#ffd84a"/><rect x="347" y="143" width="17" height="17" fill="#ffd84a"/><rect x="364" y="143" width="17" height="17" fill="#f27aa8"/><rect x="330" y="160" width="17" height="17" fill="#5bb85d"/><rect x="347" y="160" width="17" height="17" fill="#5bb85d"/><rect x="296" y="177" width="17" height="17" fill="#5bb85d"/><rect x="313" y="177" width="17" height="17" fill="#5bb85d"/><rect x="330" y="177" width="17" height="17" fill="#5bb85d"/><rect x="347" y="177" width="17" height="17" fill="#5bb85d"/><rect x="330" y="194" width="17" height="17" fill="#5bb85d"/><rect x="347" y="194" width="17" height="17" fill="#5bb85d"/><rect x="330" y="211" width="17" height="17" fill="#5bb85d"/><rect x="347" y="211" width="17" height="17" fill="#5bb85d"/><rect x="364" y="211" width="17" height="17" fill="#5bb85d"/><rect x="296" y="228" width="17" height="17" fill="#d0703f"/><rect x="313" y="228" width="17" height="17" fill="#d0703f"/><rect x="330" y="228" width="17" height="17" fill="#d0703f"/><rect x="347" y="228" width="17" height="17" fill="#d0703f"/><rect x="364" y="228" width="17" height="17" fill="#d0703f"/><rect x="381" y="228" width="17" height="17" fill="#d0703f"/><rect x="296" y="245" width="17" height="17" fill="#d0703f"/><rect x="313" y="245" width="17" height="17" fill="#f0a070"/><rect x="330" y="245" width="17" height="17" fill="#f0a070"/><rect x="347" y="245" width="17" height="17" fill="#f0a070"/><rect x="364" y="245" width="17" height="17" fill="#f0a070"/><rect x="381" y="245" width="17" height="17" fill="#d0703f"/><rect x="313" y="262" width="17" height="17" fill="#d0703f"/><rect x="330" y="262" width="17" height="17" fill="#d0703f"/><rect x="347" y="262" width="17" height="17" fill="#d0703f"/><rect x="364" y="262" width="17" height="17" fill="#d0703f"/><rect x="313" y="279" width="17" height="17" fill="#d0703f"/><rect x="330" y="279" width="17" height="17" fill="#d0703f"/><rect x="347" y="279" width="17" height="17" fill="#d0703f"/><rect x="364" y="279" width="17" height="17" fill="#d0703f"/></g><text x="256" y="444" text-anchor="middle" fill="#fff4dc" font-family="Arial,Helvetica,sans-serif" font-size="44" font-weight="700">Wellbloom</text><path d="M 225 472 H 287" fill="none" stroke="#5fc8f0" stroke-width="4" stroke-linecap="round" stroke-linejoin="round" /></svg>